<svg xmlns="http://www.w3.org/2000/svg" fill="none" viewBox="0 0 24 24" height="24" width="24">
<path fill="black" d="M5.5 2.25C5.16848 2.25 4.85054 2.3817 4.61612 2.61612C4.3817 2.85054 4.25 3.16848 4.25 3.5V17.6893L6.96967 14.9697C7.11032 14.829 7.30109 14.75 7.5 14.75H19.5C20.1751 14.75 20.75 14.1751 20.75 13.5V9.5C20.75 9.08579 21.0858 8.75 21.5 8.75C21.9142 8.75 22.25 9.08579 22.25 9.5V13.5C22.25 15.0035 21.0035 16.25 19.5 16.25H7.81066L4.03033 20.0303C3.81583 20.2448 3.49324 20.309 3.21299 20.1929C2.93273 20.0768 2.75 19.8033 2.75 19.5V3.5C2.75 2.77065 3.03973 2.07118 3.55546 1.55546C4.07118 1.03973 4.77065 0.75 5.5 0.75H13.5C13.9142 0.75 14.25 1.08579 14.25 1.5C14.25 1.91421 13.9142 2.25 13.5 2.25H5.5Z" clip-rule="evenodd" fill-rule="evenodd"></path>
<path fill="black" d="M18.9375 0.299403C18.7914 -0.0998007 18.2086 -0.0998011 18.0625 0.299403L17.058 3.04371C17.0093 3.17664 16.8991 3.27975 16.7603 3.32223L14.3244 4.06758C13.8925 4.19975 13.8917 4.79155 14.3233 4.92479L16.7612 5.67744C16.8995 5.72014 17.0092 5.82307 17.0577 5.95561L18.0625 8.7006C18.2086 9.0998 18.7914 9.0998 18.9375 8.7006L19.9421 5.95595C19.9907 5.82322 20.1007 5.7202 20.2393 5.67761L22.6762 4.92861C23.1079 4.7959 23.1079 4.2041 22.6762 4.07139L20.2393 3.32239C20.1007 3.2798 19.9907 3.17678 19.9421 3.04405L18.9375 0.299403Z" clip-rule="evenodd" fill-rule="evenodd"></path>
</svg>
