<svg xmlns="http://www.w3.org/2000/svg" fill="none" viewBox="0 0 120 40" height="40" width="120">
<rect fill="white" rx="3.5" height="39" width="118.664" y="0.5" x="0.5"></rect>
<rect stroke="black" rx="3.5" height="39" width="118.664" y="0.5" x="0.5"></rect>
<path fill="black" d="M24.997 19.8894C25.0082 19.0214 25.2388 18.1704 25.6672 17.4154C26.0957 16.6605 26.7081 16.0263 27.4476 15.5716C26.9779 14.9007 26.3581 14.3486 25.6377 13.9591C24.9172 13.5696 24.1158 13.3535 23.2972 13.3279C21.551 13.1446 19.8581 14.3728 18.9682 14.3728C18.0612 14.3728 16.6911 13.3461 15.2158 13.3764C14.2615 13.4073 13.3314 13.6848 12.5163 14.1819C11.7011 14.679 11.0287 15.3788 10.5644 16.2131C8.55327 19.6951 10.0534 24.8125 11.9799 27.6271C12.9438 29.0054 14.0703 30.5449 15.5443 30.4903C16.9867 30.4305 17.5254 29.5705 19.2665 29.5705C20.9914 29.5705 21.4968 30.4903 23.0007 30.4556C24.5485 30.4305 25.5237 29.0712 26.4537 27.6799C27.1463 26.6979 27.6792 25.6125 28.0327 24.4641C27.1335 24.0837 26.3662 23.4471 25.8263 22.6336C25.2865 21.8201 24.9981 20.8657 24.997 19.8894Z"></path>
<path fill="black" d="M22.1573 11.4768C23.0012 10.4637 23.417 9.1616 23.3163 7.84692C22.027 7.98234 20.8361 8.59854 19.9808 9.57274C19.5626 10.0487 19.2423 10.6023 19.0382 11.2021C18.8341 11.8019 18.7503 12.436 18.7914 13.0682C19.4363 13.0749 20.0743 12.9351 20.6573 12.6594C21.2403 12.3838 21.7532 11.9794 22.1573 11.4768Z"></path>
<path fill="black" d="M42.3027 27.1396H37.5693L36.4326 30.4961H34.4277L38.9111 18.0781H40.9941L45.4775 30.4961H43.4385L42.3027 27.1396ZM38.0596 25.5908H41.8116L39.962 20.1435H39.9102L38.0596 25.5908Z"></path>
<path fill="black" d="M55.1592 25.9697C55.1592 28.7832 53.6533 30.5908 51.3809 30.5908C50.8052 30.6209 50.2327 30.4883 49.7289 30.2082C49.2251 29.928 48.8104 29.5117 48.5323 29.0068H48.4893V33.4912H46.6309V21.4424H48.4297V22.9482H48.4639C48.7548 22.4458 49.1766 22.0316 49.6842 21.7497C50.1918 21.4679 50.7664 21.3289 51.3467 21.3476C53.6446 21.3477 55.1592 23.1641 55.1592 25.9697ZM53.249 25.9697C53.249 24.1367 52.3018 22.9316 50.8565 22.9316C49.4365 22.9316 48.4815 24.1621 48.4815 25.9697C48.4815 27.7939 49.4365 29.0156 50.8565 29.0156C52.3018 29.0156 53.249 27.8193 53.249 25.9697Z"></path>
<path fill="black" d="M65.1245 25.9697C65.1245 28.7832 63.6182 30.5908 61.3457 30.5908C60.7701 30.6209 60.1976 30.4883 59.6938 30.2082C59.19 29.928 58.7753 29.5117 58.4971 29.0068H58.4541V33.4912H56.5957V21.4424H58.3945V22.9482H58.4287C58.7197 22.4458 59.1414 22.0316 59.649 21.7497C60.1567 21.4679 60.7312 21.3289 61.3115 21.3476C63.6094 21.3477 65.1245 23.1641 65.1245 25.9697ZM63.2139 25.9697C63.2139 24.1367 62.2666 22.9316 60.8213 22.9316C59.4014 22.9316 58.4463 24.1621 58.4463 25.9697C58.4463 27.7939 59.4014 29.0156 60.8213 29.0156C62.2666 29.0156 63.2139 27.8193 63.2139 25.9697Z"></path>
<path fill="black" d="M71.711 27.0361C71.8487 28.2676 73.045 29.0761 74.6797 29.0761C76.2461 29.0761 77.3731 28.2675 77.3731 27.1572C77.3731 26.1933 76.6934 25.6162 75.084 25.2207L73.4747 24.833C71.1944 24.2822 70.1358 23.2158 70.1358 21.4853C70.1358 19.3427 72.003 17.871 74.6534 17.871C77.2784 17.871 79.0772 19.3427 79.1378 21.4853H77.2618C77.1495 20.246 76.125 19.498 74.628 19.498C73.1309 19.498 72.1065 20.2548 72.1065 21.3564C72.1065 22.2343 72.7608 22.7509 74.3614 23.1464L75.7295 23.4823C78.2774 24.0849 79.335 25.1083 79.335 26.9247C79.335 29.248 77.4854 30.703 74.542 30.703C71.7881 30.703 69.9287 29.2821 69.8086 27.036L71.711 27.0361Z"></path>
<path fill="black" d="M83.3476 19.2998V21.4424H85.0693V22.9141H83.3476V27.9053C83.3476 28.6807 83.6924 29.042 84.4492 29.042C84.6536 29.0384 84.8577 29.0241 85.0605 28.999V30.4619C84.7203 30.5255 84.3744 30.5543 84.0283 30.5478C82.1953 30.5478 81.4805 29.8593 81.4805 28.1035V22.9141H80.1641V21.4424H81.4804V19.2998H83.3476Z"></path>
<path fill="black" d="M86.0645 25.9697C86.0645 23.1211 87.7422 21.3311 90.3584 21.3311C92.9834 21.3311 94.6533 23.1211 94.6533 25.9697C94.6533 28.8262 92.9922 30.6084 90.3584 30.6084C87.7256 30.6084 86.0645 28.8262 86.0645 25.9697ZM92.7598 25.9697C92.7598 24.0156 91.8643 22.8623 90.3584 22.8623C88.8525 22.8623 87.957 24.0244 87.957 25.9697C87.957 27.9316 88.8525 29.0762 90.3584 29.0762C91.8643 29.0762 92.7598 27.9316 92.7598 25.9697Z"></path>
<path fill="black" d="M96.1856 21.4424H97.958V22.9834H98.001C98.1209 22.5021 98.4029 22.0768 98.7995 21.7789C99.1961 21.481 99.6831 21.3287 100.179 21.3476C100.393 21.3469 100.606 21.3702 100.815 21.417V23.1553C100.545 23.0726 100.263 23.0347 99.9805 23.043C99.7105 23.032 99.4413 23.0796 99.1915 23.1825C98.9417 23.2854 98.717 23.4411 98.5331 23.639C98.3491 23.8369 98.2101 24.0723 98.1257 24.3289C98.0413 24.5856 98.0134 24.8575 98.044 25.126V30.4961H96.1855L96.1856 21.4424Z"></path>
<path fill="black" d="M109.384 27.8369C109.134 29.4805 107.533 30.6084 105.485 30.6084C102.852 30.6084 101.217 28.8437 101.217 26.0127C101.217 23.1729 102.86 21.3311 105.407 21.3311C107.912 21.3311 109.487 23.0518 109.487 25.7969V26.4336H103.093V26.5459C103.063 26.8791 103.105 27.2148 103.215 27.5306C103.325 27.8464 103.501 28.1352 103.732 28.3778C103.962 28.6203 104.241 28.8111 104.551 28.9374C104.861 29.0637 105.194 29.1226 105.528 29.1103C105.967 29.1515 106.408 29.0498 106.785 28.8203C107.162 28.5909 107.454 28.246 107.619 27.8369L109.384 27.8369ZM103.102 25.1348H107.628C107.645 24.8352 107.599 24.5354 107.495 24.2541C107.39 23.9729 107.228 23.7164 107.02 23.5006C106.811 23.2849 106.56 23.1145 106.283 23.0003C106.005 22.8861 105.707 22.8305 105.407 22.8369C105.105 22.8351 104.805 22.8933 104.525 23.008C104.245 23.1227 103.99 23.2918 103.776 23.5054C103.561 23.7191 103.391 23.973 103.276 24.2527C103.16 24.5323 103.101 24.8321 103.102 25.1348Z"></path>
<path fill="black" d="M37.8271 8.73101C38.2168 8.70305 38.6077 8.76191 38.9718 8.90335C39.3359 9.04478 39.6641 9.26526 39.9327 9.54889C40.2013 9.83251 40.4036 10.1722 40.525 10.5435C40.6464 10.9148 40.6839 11.3083 40.6348 11.6959C40.6348 13.6021 39.6045 14.6979 37.8271 14.6979H35.6719V8.73101H37.8271ZM36.5986 13.854H37.7236C38.002 13.8707 38.2806 13.825 38.5392 13.7204C38.7977 13.6158 39.0297 13.4548 39.2182 13.2493C39.4067 13.0437 39.5469 12.7987 39.6288 12.5321C39.7107 12.2655 39.7321 11.9839 39.6914 11.708C39.7291 11.4332 39.7056 11.1534 39.6224 10.8887C39.5393 10.6241 39.3987 10.3811 39.2106 10.1771C39.0226 9.97322 38.7917 9.81341 38.5346 9.70917C38.2776 9.60494 38.0006 9.55885 37.7236 9.57422H36.5986V13.854Z"></path>
<path fill="black" d="M41.6819 12.4443C41.6536 12.1484 41.6875 11.8499 41.7813 11.5678C41.8751 11.2857 42.0269 11.0264 42.2268 10.8064C42.4268 10.5864 42.6705 10.4107 42.9423 10.2904C43.2142 10.1701 43.5082 10.108 43.8055 10.108C44.1027 10.108 44.3967 10.1701 44.6686 10.2904C44.9404 10.4107 45.1841 10.5864 45.3841 10.8064C45.584 11.0264 45.7358 11.2857 45.8296 11.5678C45.9235 11.8499 45.9573 12.1484 45.929 12.4443C45.9578 12.7406 45.9244 13.0396 45.8308 13.3221C45.7372 13.6046 45.5855 13.8644 45.3855 14.0848C45.1856 14.3052 44.9417 14.4814 44.6695 14.6019C44.3974 14.7225 44.1031 14.7847 43.8055 14.7847C43.5078 14.7847 43.2135 14.7225 42.9414 14.6019C42.6693 14.4814 42.4254 14.3052 42.2254 14.0848C42.0254 13.8644 41.8737 13.6046 41.7801 13.3221C41.6865 13.0396 41.6531 12.7406 41.6819 12.4443ZM45.0149 12.4443C45.0149 11.4683 44.5764 10.8975 43.8069 10.8975C43.0345 10.8975 42.5999 11.4683 42.5999 12.4444C42.5999 13.4282 43.0345 13.9946 43.8069 13.9946C44.5765 13.9946 45.0149 13.4243 45.0149 12.4443Z"></path>
<path fill="black" d="M51.5742 14.6978H50.6523L49.7217 11.3813H49.6514L48.7246 14.6978H47.8115L46.5703 10.1948H47.4717L48.2783 13.6308H48.3447L49.2705 10.1948H50.1231L51.0488 13.6308H51.1191L51.9219 10.1948H52.8105L51.5742 14.6978Z"></path>
<path fill="black" d="M53.8535 10.1948H54.709V10.9102H54.7754C54.888 10.6532 55.0781 10.4379 55.3189 10.2941C55.5598 10.1503 55.8395 10.0852 56.1191 10.1079C56.3382 10.0914 56.5582 10.1245 56.7628 10.2046C56.9674 10.2847 57.1514 10.4098 57.3011 10.5706C57.4508 10.7315 57.5623 10.9239 57.6275 11.1337C57.6927 11.3436 57.7099 11.5654 57.6777 11.7827V14.6977H56.7891V12.0059C56.7891 11.2822 56.4746 10.9224 55.8174 10.9224C55.6686 10.9154 55.5201 10.9408 55.3821 10.9966C55.244 11.0524 55.1197 11.1375 55.0175 11.2458C54.9154 11.3542 54.8379 11.4834 54.7904 11.6245C54.7429 11.7657 54.7264 11.9154 54.7422 12.0635V14.6978H53.8535L53.8535 10.1948Z"></path>
<path fill="black" d="M59.0938 8.43701H59.9824V14.6978H59.0938V8.43701Z"></path>
<path fill="black" d="M61.219 12.4443C61.1907 12.1484 61.2246 11.8498 61.3185 11.5677C61.4123 11.2857 61.5641 11.0263 61.7641 10.8063C61.964 10.5863 62.2078 10.4106 62.4796 10.2903C62.7515 10.17 63.0455 10.1079 63.3428 10.1079C63.6401 10.1079 63.9341 10.17 64.206 10.2903C64.4778 10.4106 64.7215 10.5863 64.9215 10.8063C65.1215 11.0263 65.2733 11.2857 65.3671 11.5677C65.461 11.8498 65.4949 12.1484 65.4666 12.4443C65.4954 12.7406 65.4619 13.0396 65.3683 13.3221C65.2747 13.6046 65.123 13.8644 64.9229 14.0848C64.7229 14.3052 64.479 14.4814 64.2069 14.6019C63.9348 14.7224 63.6404 14.7847 63.3428 14.7847C63.0452 14.7847 62.7508 14.7224 62.4787 14.6019C62.2065 14.4814 61.9626 14.3052 61.7626 14.0848C61.5626 13.8644 61.4109 13.6046 61.3173 13.3221C61.2237 13.0396 61.1902 12.7406 61.219 12.4443ZM64.552 12.4443C64.552 11.4683 64.1135 10.8975 63.344 10.8975C62.5715 10.8975 62.137 11.4683 62.137 12.4444C62.137 13.4282 62.5716 13.9946 63.344 13.9946C64.1135 13.9946 64.552 13.4243 64.552 12.4443Z"></path>
<path fill="black" d="M66.4023 13.4243C66.4023 12.6138 67.0059 12.1465 68.0771 12.0801L69.2969 12.0098V11.6211C69.2969 11.1455 68.9824 10.877 68.375 10.877C67.8789 10.877 67.5352 11.0591 67.4365 11.3775H66.5762C66.667 10.604 67.3945 10.1079 68.416 10.1079C69.5449 10.1079 70.1816 10.6699 70.1816 11.6211V14.6978H69.3262V14.065H69.2559C69.1131 14.292 68.9127 14.477 68.6751 14.6012C68.4375 14.7254 68.1712 14.7844 67.9033 14.772C67.7143 14.7916 67.5232 14.7715 67.3425 14.7128C67.1617 14.6541 66.9953 14.5581 66.8538 14.4312C66.7124 14.3042 66.5992 14.149 66.5214 13.9756C66.4437 13.8022 66.4031 13.6144 66.4023 13.4243ZM69.2969 13.0396V12.6631L68.1973 12.7334C67.5771 12.7749 67.2959 12.9859 67.2959 13.3828C67.2959 13.7881 67.6474 14.0239 68.1309 14.0239C68.2725 14.0383 68.4156 14.024 68.5516 13.9819C68.6876 13.9398 68.8138 13.8708 68.9226 13.7789C69.0313 13.6871 69.1205 13.5743 69.1849 13.4473C69.2492 13.3203 69.2873 13.1816 69.2969 13.0396Z"></path>
<path fill="black" d="M71.3496 12.4444C71.3496 11.0215 72.0811 10.1201 73.2188 10.1201C73.5002 10.1072 73.7795 10.1746 74.024 10.3145C74.2685 10.4544 74.4682 10.661 74.5996 10.9101H74.666V8.43701H75.5547V14.6978H74.7031V13.9863H74.6328C74.4912 14.2338 74.2846 14.4378 74.0353 14.5763C73.7861 14.7148 73.5037 14.7825 73.2188 14.772C72.0732 14.772 71.3496 13.8706 71.3496 12.4444ZM72.2676 12.4444C72.2676 13.3994 72.7178 13.9741 73.4707 13.9741C74.2197 13.9741 74.6826 13.3911 74.6826 12.4483C74.6826 11.5098 74.2149 10.9185 73.4707 10.9185C72.7227 10.9185 72.2676 11.4971 72.2676 12.4444Z"></path>
<path fill="black" d="M79.2307 12.4443C79.2024 12.1484 79.2363 11.8499 79.3301 11.5678C79.424 11.2857 79.5757 11.0264 79.7757 10.8064C79.9756 10.5864 80.2193 10.4107 80.4912 10.2904C80.763 10.1701 81.057 10.108 81.3543 10.108C81.6516 10.108 81.9455 10.1701 82.2174 10.2904C82.4892 10.4107 82.7329 10.5864 82.9329 10.8064C83.1328 11.0264 83.2846 11.2857 83.3784 11.5678C83.4723 11.8499 83.5061 12.1484 83.4778 12.4443C83.5067 12.7406 83.4732 13.0396 83.3796 13.3221C83.286 13.6046 83.1344 13.8644 82.9344 14.0848C82.7344 14.3052 82.4905 14.4814 82.2184 14.6019C81.9462 14.7225 81.6519 14.7847 81.3543 14.7847C81.0567 14.7847 80.7623 14.7225 80.4902 14.6019C80.2181 14.4814 79.9742 14.3052 79.7742 14.0848C79.5742 13.8644 79.4225 13.6046 79.3289 13.3221C79.2353 13.0396 79.2019 12.7406 79.2307 12.4443ZM82.5637 12.4443C82.5637 11.4683 82.1253 10.8975 81.3557 10.8975C80.5833 10.8975 80.1487 11.4683 80.1487 12.4444C80.1487 13.4282 80.5833 13.9946 81.3557 13.9946C82.1253 13.9946 82.5637 13.4243 82.5637 12.4443Z"></path>
<path fill="black" d="M84.6699 10.1948H85.5254V10.9102H85.5918C85.7045 10.6532 85.8945 10.4379 86.1353 10.2941C86.3762 10.1503 86.6559 10.0852 86.9356 10.1079C87.1547 10.0914 87.3746 10.1245 87.5792 10.2046C87.7838 10.2847 87.9678 10.4098 88.1175 10.5706C88.2672 10.7315 88.3787 10.9239 88.4439 11.1337C88.5091 11.3436 88.5263 11.5654 88.4941 11.7827V14.6977H87.6055V12.0059C87.6055 11.2822 87.291 10.9224 86.6338 10.9224C86.485 10.9154 86.3365 10.9408 86.1985 10.9966C86.0604 11.0524 85.9361 11.1375 85.8339 11.2458C85.7318 11.3542 85.6543 11.4834 85.6068 11.6245C85.5593 11.7657 85.5428 11.9154 85.5586 12.0635V14.6978H84.6699V10.1948Z"></path>
<path fill="black" d="M93.5166 9.07373V10.2153H94.4922V10.9639H93.5166V13.2793C93.5166 13.751 93.7109 13.9575 94.1533 13.9575C94.2666 13.9572 94.3797 13.9503 94.4922 13.937V14.6772C94.3326 14.7058 94.1709 14.721 94.0088 14.7226C93.0205 14.7226 92.627 14.375 92.627 13.5068V10.9638H91.9121V10.2153H92.627V9.07373H93.5166Z"></path>
<path fill="black" d="M95.7051 8.43701H96.5859V10.9185H96.6562C96.7744 10.6591 96.9696 10.4425 97.2153 10.2982C97.461 10.1539 97.7452 10.0888 98.0292 10.1118C98.2472 10.1 98.4651 10.1364 98.6674 10.2184C98.8697 10.3004 99.0513 10.4261 99.1995 10.5864C99.3476 10.7468 99.4585 10.9378 99.5243 11.146C99.5901 11.3541 99.6091 11.5742 99.58 11.7905V14.6978H98.6905V12.0098C98.6905 11.2905 98.3555 10.9263 97.7276 10.9263C97.5748 10.9137 97.4212 10.9347 97.2774 10.9878C97.1337 11.0408 97.0032 11.1247 96.8952 11.2334C96.7872 11.3421 96.7043 11.4732 96.6522 11.6173C96.6002 11.7614 96.5802 11.9152 96.5938 12.0679V14.6977H95.7051L95.7051 8.43701Z"></path>
<path fill="black" d="M104.761 13.4819C104.641 13.8935 104.379 14.2495 104.022 14.4876C103.666 14.7258 103.237 14.8309 102.81 14.7847C102.514 14.7925 102.219 14.7357 101.946 14.6182C101.674 14.5006 101.43 14.3252 101.232 14.1041C101.034 13.8829 100.887 13.6214 100.8 13.3376C100.713 13.0537 100.69 12.7544 100.73 12.4605C100.691 12.1656 100.715 11.8656 100.801 11.581C100.888 11.2963 101.035 11.0335 101.231 10.8105C101.428 10.5874 101.671 10.4092 101.943 10.288C102.214 10.1668 102.509 10.1054 102.806 10.1079C104.059 10.1079 104.815 10.9639 104.815 12.3779V12.688H101.635V12.7378C101.621 12.9031 101.642 13.0694 101.696 13.2261C101.751 13.3829 101.837 13.5266 101.95 13.6481C102.063 13.7695 102.2 13.866 102.352 13.9314C102.504 13.9968 102.669 14.0297 102.835 14.0278C103.047 14.0533 103.263 14.0151 103.453 13.9178C103.644 13.8206 103.802 13.6689 103.906 13.4819L104.761 13.4819ZM101.635 12.0308H103.91C103.921 11.8796 103.9 11.7278 103.85 11.5851C103.799 11.4424 103.718 11.3119 103.614 11.2021C103.51 11.0922 103.383 11.0054 103.243 10.9472C103.103 10.8891 102.953 10.8608 102.801 10.8643C102.648 10.8623 102.495 10.8912 102.353 10.9491C102.21 11.0071 102.081 11.0929 101.972 11.2017C101.864 11.3104 101.778 11.4397 101.72 11.5821C101.662 11.7245 101.633 11.8771 101.635 12.0308Z"></path>
</svg>
