<svg xmlns="http://www.w3.org/2000/svg" fill="none" viewBox="0 0 19 22" height="22" width="19">
<path fill="#1B252B" d="M17.1736 6.01555C17.1979 5.86531 17.232 5.88915 17.3191 5.95207C18.6968 6.98051 18.7897 8.75607 18.4744 10.4443C17.674 14.495 14.9861 15.8925 11.5418 15.8925C10.8142 15.8925 10.3431 15.7805 10.1199 16.8476C9.36799 21.5726 9.45563 21.0153 9.42168 21.2773C9.33911 21.6942 8.99492 21.9998 8.57793 21.9999H5.49687C5.15262 21.9998 4.9347 21.7183 4.9832 21.3739C4.98516 21.3612 5.20619 19.9221 6.29765 13.1415C6.33645 12.8458 6.5303 12.6856 6.82597 12.6855C9.44556 12.6855 14.8112 13.1658 16.7469 7.64543C16.9263 7.10709 17.0766 6.56843 17.1736 6.01555ZM3.81914 0.0194556C11.2066 0.0194481 11.8279 -0.160158 13.7146 0.57219C16.6302 1.70252 16.8973 4.42931 15.8494 7.37883C14.8064 10.4152 12.3325 11.7198 9.05351 11.7587C6.94828 11.7927 5.68171 11.4194 5.40019 12.9325C5.2304 13.864 4.55613 18.2061 4.35722 19.4335C4.34267 19.5208 4.30867 19.5546 4.21172 19.5546H0.592575C0.224019 19.5546 -0.0426663 19.2348 0.00566063 18.8808L2.84843 0.838792C2.92127 0.373154 3.33892 0.0194556 3.81914 0.0194556Z"></path>
</svg>
