<svg xmlns="http://www.w3.org/2000/svg" fill="none" viewBox="0 0 22 22" height="22" width="22">
<path fill="#1B252B" d="M8.9375 7.5625C8.9375 4.52461 11.3996 2.0625 14.4375 2.0625C17.4754 2.0625 19.9375 4.52461 19.9375 7.5625C19.9375 10.6004 17.4754 13.0625 14.4375 13.0625C13.9906 13.0625 13.5566 13.0109 13.1441 12.9078C12.7961 12.8219 12.4266 12.925 12.173 13.1828L10.9184 14.4375H8.59375C8.02227 14.4375 7.5625 14.8973 7.5625 15.4688V17.1875H5.84375C5.27227 17.1875 4.8125 17.6473 4.8125 18.2188V19.9375H2.0625V16.5816L8.81719 9.82695C9.0707 9.57344 9.17383 9.20391 9.09219 8.85586C8.99336 8.44336 8.9375 8.00937 8.9375 7.5625ZM14.4375 0C10.2609 0 6.875 3.38594 6.875 7.5625C6.875 7.9707 6.90508 8.37031 6.96953 8.76133L0.300781 15.4258C0.107422 15.6191 0 15.8812 0 16.1562V20.9688C0 21.5402 0.459766 22 1.03125 22H5.84375C6.41523 22 6.875 21.5402 6.875 20.9688V19.25H8.59375C9.16523 19.25 9.625 18.7902 9.625 18.2188V16.5H11.3438C11.6188 16.5 11.8809 16.3926 12.0742 16.1992L13.243 15.0305C13.634 15.0906 14.0336 15.125 14.4418 15.125C18.6184 15.125 22.0043 11.7391 22.0043 7.5625C22.0043 3.38594 18.6141 0 14.4375 0ZM15.8125 7.5625C16.1772 7.5625 16.5269 7.41763 16.7848 7.15977C17.0426 6.90191 17.1875 6.55217 17.1875 6.1875C17.1875 5.82283 17.0426 5.47309 16.7848 5.21523C16.5269 4.95737 16.1772 4.8125 15.8125 4.8125C15.4478 4.8125 15.0981 4.95737 14.8402 5.21523C14.5824 5.47309 14.4375 5.82283 14.4375 6.1875C14.4375 6.55217 14.5824 6.90191 14.8402 7.15977C15.0981 7.41763 15.4478 7.5625 15.8125 7.5625Z"></path>
</svg>
