<svg xmlns="http://www.w3.org/2000/svg" fill="none" viewBox="0 0 161 30" height="30" width="161">
<g clip-path="url(#clip0_10671_1109)">
<path fill="#0052FF" d="M32.5575 8.83454C26.7531 8.83454 22.2178 13.2408 22.2178 19.1394C22.2178 25.0381 26.6386 29.4066 32.5575 29.4066C38.4765 29.4066 42.9741 24.9626 42.9741 19.1017C42.9741 13.2785 38.5533 8.83454 32.5575 8.83454ZM32.5967 25.1555C29.2913 25.1555 26.8692 22.5884 26.8692 19.1409C26.8692 15.6542 29.2521 13.0885 32.5575 13.0885C35.9021 13.0885 38.3227 15.6933 38.3227 19.1409C38.3227 22.5884 35.9021 25.1555 32.5967 25.1555ZM44.2417 13.3176H47.125V29.0251H51.7372V9.21744H44.2417V13.3176ZM10.6105 13.087C13.0326 13.087 14.9544 14.5809 15.6839 16.8029H20.5659C19.6811 12.0529 15.7608 8.83454 10.6497 8.83454C4.8453 8.83454 0.309998 13.2408 0.309998 19.1409C0.309998 25.041 4.73072 29.408 10.6497 29.408C15.6462 29.408 19.6434 26.1897 20.5281 21.4005H15.6839C14.9921 23.6225 13.0703 25.1555 10.6482 25.1555C7.30368 25.1555 4.95988 22.5884 4.95988 19.1409C4.96133 15.6542 7.26742 13.087 10.6105 13.087ZM131.876 17.2249L128.494 16.7274C126.879 16.4983 125.726 15.9617 125.726 14.6969C125.726 13.3176 127.226 12.6287 129.262 12.6287C131.492 12.6287 132.914 13.5859 133.222 15.1567H137.68C137.18 11.1725 134.105 8.83599 129.378 8.83599C124.496 8.83599 121.268 11.3263 121.268 14.8507C121.268 18.2213 123.383 20.1764 127.648 20.7885L131.03 21.286C132.684 21.5151 133.606 22.1678 133.606 23.3933C133.606 24.9641 131.992 25.6153 129.763 25.6153C127.033 25.6153 125.496 24.5043 125.265 22.819H120.73C121.153 26.6886 124.189 29.408 129.724 29.408C134.759 29.408 138.102 27.1092 138.102 23.1627C138.102 19.6383 135.682 17.7993 131.876 17.2249ZM49.4311 1.05766C47.74 1.05766 46.4709 2.28322 46.4709 3.96855C46.4709 5.65388 47.7385 6.87944 49.4311 6.87944C51.1222 6.87944 52.3913 5.65388 52.3913 3.96855C52.3913 2.28322 51.1222 1.05766 49.4311 1.05766ZM117.117 15.9994C117.117 11.7092 114.503 8.83599 108.969 8.83599C103.742 8.83599 100.821 11.48 100.243 15.541H104.818C105.048 13.9703 106.278 12.6679 108.892 12.6679C111.237 12.6679 112.39 13.702 112.39 14.9667C112.39 16.6143 110.276 17.0349 107.662 17.3032C104.126 17.6861 99.7444 18.9117 99.7444 23.5094C99.7444 27.0729 102.397 29.3703 106.625 29.3703C109.93 29.3703 112.006 27.991 113.044 25.8068C113.198 27.7604 114.659 29.0251 116.696 29.0251H119.387V24.9264H117.118V15.9994H117.117ZM112.582 20.9799C112.582 23.624 110.276 25.5776 107.469 25.5776C105.739 25.5776 104.278 24.8495 104.278 23.3179C104.278 21.3643 106.624 20.8276 108.776 20.5985C110.851 20.407 112.004 19.9473 112.582 19.0654V20.9799ZM88.098 8.83454C85.5221 8.83454 83.3698 9.90781 81.8324 11.7077V0.866211H77.2202V29.0251H81.7555V26.4203C83.2929 28.297 85.4844 29.408 88.098 29.408C93.6326 29.408 97.8227 25.041 97.8227 19.1409C97.8227 13.2408 93.5557 8.83454 88.098 8.83454ZM87.4061 25.1555C84.1007 25.1555 81.6786 22.5884 81.6786 19.1409C81.6786 15.6933 84.1385 13.0885 87.4438 13.0885C90.7884 13.0885 93.1322 15.6556 93.1322 19.1409C93.1322 22.5884 90.7115 25.1555 87.4061 25.1555ZM66.1887 8.83454C63.1908 8.83454 61.2299 10.0601 60.0768 11.7846V9.21744H55.5024V29.0237H60.1145V18.259C60.1145 15.2321 62.0363 13.087 64.8804 13.087C67.5332 13.087 69.1851 14.9638 69.1851 17.6847V29.0251H73.7973V17.341C73.7988 12.3589 71.2244 8.83454 66.1887 8.83454ZM160.088 18.4896C160.088 12.8202 155.938 8.83599 150.364 8.83599C144.445 8.83599 140.101 13.2799 140.101 19.1409C140.101 25.3093 144.752 29.408 150.441 29.408C155.246 29.408 159.012 26.5726 159.972 22.5507H155.167C154.476 24.3129 152.784 25.3093 150.516 25.3093C147.556 25.3093 145.327 23.4702 144.828 20.2518H160.087V18.4896H160.088ZM145.097 16.9566C145.828 14.198 147.904 12.8579 150.287 12.8579C152.9 12.8579 154.899 14.3517 155.36 16.9566H145.097Z"></path>
</g>
<defs>
<clipPath id="clip0_10671_1109">
<rect transform="translate(0.309296 0.866211)" fill="white" height="28.5418" width="159.778"></rect>
</clipPath>
</defs>
</svg>
