<svg xmlns="http://www.w3.org/2000/svg" fill="none" viewBox="0 0 22 22" height="22" width="22">
<path fill="#1B252B" d="M15.811 8.93903C15.811 7.11535 15.0867 5.36637 13.7975 4.07684C12.5083 2.7873 10.7598 2.06285 8.93663 2.06285C7.11344 2.06285 5.36493 2.7873 4.07574 4.07684C2.78656 5.36637 2.0623 7.11535 2.0623 8.93903C2.0623 10.7627 2.78656 12.5117 4.07574 13.8012C5.36493 15.0908 7.11344 15.8152 8.93663 15.8152C10.7598 15.8152 12.5083 15.0908 13.7975 13.8012C15.0867 12.5117 15.811 10.7627 15.811 8.93903ZM14.4834 15.9484C12.9624 17.1561 11.0333 17.8781 8.93663 17.8781C4 17.8781 0 13.877 0 8.93903C0 4.00107 4 0 8.93663 0C13.8733 0 17.8733 4.00107 17.8733 8.93903C17.8733 11.0363 17.1515 12.9659 15.9441 14.4872L21.6971 20.2417C22.101 20.6457 22.101 21.299 21.6971 21.6986C21.2932 22.0983 20.6402 22.1026 20.2406 21.6986L14.4834 15.9484Z"></path>
</svg>
