<svg xmlns="http://www.w3.org/2000/svg" fill="none" viewBox="0 0 25 25" height="25" width="25">
<path fill="black" d="M9.60742 0.98584C10.0216 0.98584 10.3574 1.32163 10.3574 1.73584V3.98584H14.8574V1.73584C14.8574 1.32163 15.1932 0.98584 15.6074 0.98584C16.0216 0.98584 16.3574 1.32163 16.3574 1.73584V3.98584H18.6074C20.1262 3.98584 21.3574 5.21706 21.3574 6.73584V8.98584H23.6074C24.0216 8.98584 24.3574 9.32163 24.3574 9.73584C24.3574 10.1501 24.0216 10.4858 23.6074 10.4858H21.3574V13.9858H23.6074C24.0216 13.9858 24.3574 14.3216 24.3574 14.7358C24.3574 15.1501 24.0216 15.4858 23.6074 15.4858H21.3574V18.7358C21.3574 20.2546 20.1262 21.4858 18.6074 21.4858H16.3574V23.7358C16.3574 24.1501 16.0216 24.4858 15.6074 24.4858C15.1932 24.4858 14.8574 24.1501 14.8574 23.7358V21.4858H10.3574V23.7358C10.3574 24.1501 10.0216 24.4858 9.60742 24.4858C9.19321 24.4858 8.85742 24.1501 8.85742 23.7358V21.4858H6.60742C5.08864 21.4858 3.85742 20.2546 3.85742 18.7358V15.4858H1.60742C1.19321 15.4858 0.857422 15.1501 0.857422 14.7358C0.857422 14.3216 1.19321 13.9858 1.60742 13.9858H3.85742V10.4858H1.60742C1.19321 10.4858 0.857422 10.1501 0.857422 9.73584C0.857422 9.32163 1.19321 8.98584 1.60742 8.98584H3.85742V6.73584C3.85742 5.21706 5.08864 3.98584 6.60742 3.98584H8.85742V1.73584C8.85742 1.32163 9.19321 0.98584 9.60742 0.98584ZM6.60742 5.48584C5.91707 5.48584 5.35742 6.04548 5.35742 6.73584V18.7358C5.35742 19.4262 5.91707 19.9858 6.60742 19.9858H18.6074C19.2978 19.9858 19.8574 19.4262 19.8574 18.7358V6.73584C19.8574 6.04548 19.2978 5.48584 18.6074 5.48584H6.60742ZM8.85742 9.73584C8.85742 9.32163 9.19321 8.98584 9.60742 8.98584H15.6074C16.0216 8.98584 16.3574 9.32163 16.3574 9.73584V15.7358C16.3574 16.1501 16.0216 16.4858 15.6074 16.4858H9.60742C9.19321 16.4858 8.85742 16.1501 8.85742 15.7358V9.73584ZM10.3574 10.4858V14.9858H14.8574V10.4858H10.3574Z" clip-rule="evenodd" fill-rule="evenodd"></path>
</svg>
