<svg xmlns="http://www.w3.org/2000/svg" fill="none" viewBox="0 0 25 25" height="25" width="25">
<path fill="black" d="M4.66288 2.7913C5.1786 2.27557 5.87808 1.98584 6.60742 1.98584H14.6074C14.8063 1.98584 14.9971 2.06486 15.1378 2.20551L21.1378 8.20551C21.2784 8.34616 21.3574 8.53693 21.3574 8.73584V20.7358C21.3574 21.4652 21.0677 22.1647 20.552 22.6804C20.0362 23.1961 19.3368 23.4858 18.6074 23.4858H6.60742C5.87808 23.4858 5.1786 23.1961 4.66288 22.6804C4.14715 22.1647 3.85742 21.4652 3.85742 20.7358V4.73584C3.85742 4.00649 4.14715 3.30702 4.66288 2.7913ZM6.60742 3.48584C6.2759 3.48584 5.95796 3.61754 5.72354 3.85196C5.48912 4.08638 5.35742 4.40432 5.35742 4.73584V20.7358C5.35742 21.0674 5.48912 21.3853 5.72354 21.6197C5.95796 21.8541 6.2759 21.9858 6.60742 21.9858H18.6074C18.9389 21.9858 19.2569 21.8541 19.4913 21.6197C19.7257 21.3853 19.8574 21.0674 19.8574 20.7358V9.48584H14.6074C14.1932 9.48584 13.8574 9.15005 13.8574 8.73584V3.48584H6.60742ZM15.3574 4.5465L18.7968 7.98584H15.3574V4.5465ZM11.1378 13.2055C11.4306 13.4984 11.4306 13.9733 11.1378 14.2662L9.16808 16.2358L11.1378 18.2055C11.4306 18.4984 11.4306 18.9733 11.1378 19.2662C10.8449 19.5591 10.37 19.5591 10.0771 19.2662L7.57709 16.7662C7.2842 16.4733 7.2842 15.9984 7.57709 15.7055L10.0771 13.2055C10.37 12.9126 10.8449 12.9126 11.1378 13.2055ZM14.0771 14.2662C13.7842 13.9733 13.7842 13.4984 14.0771 13.2055C14.37 12.9126 14.8449 12.9126 15.1378 13.2055L17.6378 15.7055C17.9306 15.9984 17.9306 16.4733 17.6378 16.7662L15.1378 19.2662C14.8449 19.5591 14.37 19.5591 14.0771 19.2662C13.7842 18.9733 13.7842 18.4984 14.0771 18.2055L16.0468 16.2358L14.0771 14.2662Z" clip-rule="evenodd" fill-rule="evenodd"></path>
</svg>
