<svg xmlns="http://www.w3.org/2000/svg" fill="none" viewBox="0 0 24 18" height="18" width="24">
<path fill="#1B252B" d="M12 0C12.4988 0 12.9 0.376172 12.9 0.84375V3.375H16.8C18.7875 3.375 20.4 4.88672 20.4 6.75V14.625C20.4 16.4883 18.7875 18 16.8 18H7.2C5.2125 18 3.6 16.4883 3.6 14.625V6.75C3.6 4.88672 5.2125 3.375 7.2 3.375H11.1V0.84375C11.1 0.376172 11.5013 0 12 0ZM7.2 5.0625C6.20625 5.0625 5.4 5.81836 5.4 6.75V14.625C5.4 15.5566 6.20625 16.3125 7.2 16.3125H16.8C17.7938 16.3125 18.6 15.5566 18.6 14.625V6.75C18.6 5.81836 17.7938 5.0625 16.8 5.0625H12H7.2ZM1.8 7.875H2.4V14.625H1.8C0.80625 14.625 0 13.8691 0 12.9375V9.5625C0 8.63086 0.80625 7.875 1.8 7.875ZM22.2 7.875C23.1938 7.875 24 8.63086 24 9.5625V12.9375C24 13.8691 23.1938 14.625 22.2 14.625H21.6V7.875H22.2ZM7.8 13.5H9C9.33 13.5 9.6 13.7531 9.6 14.0625C9.6 14.3719 9.33 14.625 9 14.625H7.8C7.47 14.625 7.2 14.3719 7.2 14.0625C7.2 13.7531 7.47 13.5 7.8 13.5ZM11.4 13.5H12.6C12.93 13.5 13.2 13.7531 13.2 14.0625C13.2 14.3719 12.93 14.625 12.6 14.625H11.4C11.07 14.625 10.8 14.3719 10.8 14.0625C10.8 13.7531 11.07 13.5 11.4 13.5ZM15 13.5H16.2C16.53 13.5 16.8 13.7531 16.8 14.0625C16.8 14.3719 16.53 14.625 16.2 14.625H15C14.67 14.625 14.4 14.3719 14.4 14.0625C14.4 13.7531 14.67 13.5 15 13.5ZM7.5 9C7.5 8.62704 7.65804 8.26935 7.93934 8.00563C8.22064 7.74191 8.60218 7.59375 9 7.59375C9.39783 7.59375 9.77936 7.74191 10.0607 8.00563C10.342 8.26935 10.5 8.62704 10.5 9C10.5 9.37296 10.342 9.73065 10.0607 9.99437C9.77936 10.2581 9.39783 10.4062 9 10.4062C8.60218 10.4062 8.22064 10.2581 7.93934 9.99437C7.65804 9.73065 7.5 9.37296 7.5 9ZM15 7.59375C15.3978 7.59375 15.7794 7.74191 16.0607 8.00563C16.342 8.26935 16.5 8.62704 16.5 9C16.5 9.37296 16.342 9.73065 16.0607 9.99437C15.7794 10.2581 15.3978 10.4062 15 10.4062C14.6022 10.4062 14.2206 10.2581 13.9393 9.99437C13.658 9.73065 13.5 9.37296 13.5 9C13.5 8.62704 13.658 8.26935 13.9393 8.00563C14.2206 7.74191 14.6022 7.59375 15 7.59375Z"></path>
</svg>
