<svg xmlns="http://www.w3.org/2000/svg" fill="none" viewBox="0 0 22 23" height="23" width="22">
<path fill="#1B252B" d="M4.62196 14.6239C4.62196 15.8958 3.58286 16.9349 2.31098 16.9349C1.03911 16.9349 0 15.8958 0 14.6239C0 13.352 1.03911 12.3129 2.31098 12.3129H4.62196V14.6239ZM5.78679 14.6239C5.78679 13.352 6.82589 12.3129 8.09777 12.3129C9.36964 12.3129 10.4088 13.352 10.4088 14.6239V20.4107C10.4088 21.6826 9.36964 22.7217 8.09777 22.7217C6.82589 22.7217 5.78679 21.6826 5.78679 20.4107V14.6239ZM8.09777 5.34364C6.82589 5.34364 5.78679 4.30454 5.78679 3.03266C5.78679 1.76079 6.82589 0.72168 8.09777 0.72168C9.36964 0.72168 10.4088 1.76079 10.4088 3.03266V5.34364H8.09777ZM8.09777 6.50847C9.36964 6.50847 10.4088 7.54757 10.4088 8.81945C10.4088 10.0913 9.36964 11.1304 8.09777 11.1304H2.31098C1.03911 11.1304 0 10.0913 0 8.81945C0 7.54757 1.03911 6.50847 2.31098 6.50847H8.09777ZM17.378 8.81945C17.378 7.54757 18.4171 6.50847 19.689 6.50847C20.9609 6.50847 22 7.54757 22 8.81945C22 10.0913 20.9609 11.1304 19.689 11.1304H17.378V8.81945ZM16.2132 8.81945C16.2132 10.0913 15.1741 11.1304 13.9022 11.1304C12.6304 11.1304 11.5912 10.0913 11.5912 8.81945V3.03266C11.5912 1.76079 12.6304 0.72168 13.9022 0.72168C15.1741 0.72168 16.2132 1.76079 16.2132 3.03266V8.81945ZM13.9022 18.0997C15.1741 18.0997 16.2132 19.1388 16.2132 20.4107C16.2132 21.6826 15.1741 22.7217 13.9022 22.7217C12.6304 22.7217 11.5912 21.6826 11.5912 20.4107V18.0997H13.9022ZM13.9022 16.9349C12.6304 16.9349 11.5912 15.8958 11.5912 14.6239C11.5912 13.352 12.6304 12.3129 13.9022 12.3129H19.689C20.9609 12.3129 22 13.352 22 14.6239C22 15.8958 20.9609 16.9349 19.689 16.9349H13.9022Z"></path>
</svg>
