<svg xmlns="http://www.w3.org/2000/svg" fill="none" viewBox="0 0 25 25" height="25" width="25">
<path fill="black" d="M3.38739 11.9858H7.88971C8.09089 8.96992 9.13935 6.0791 10.9035 3.64246C6.84833 4.39758 3.72339 7.79829 3.38739 11.9858ZM12.6074 3.88457C10.734 6.19235 9.61173 9.0201 9.39339 11.9858H15.8215C15.6031 9.0201 14.4808 6.19235 12.6074 3.88457ZM15.8215 13.4858C15.6031 16.4516 14.4808 19.2793 12.6074 21.5871C10.734 19.2793 9.61173 16.4516 9.39339 13.4858H15.8215ZM7.88971 13.4858H3.38739C3.72339 17.6734 6.84832 21.0741 10.9035 21.8292C9.13935 19.3926 8.09089 16.5018 7.88971 13.4858ZM14.3114 21.8292C16.0755 19.3926 17.124 16.5018 17.3251 13.4858H21.8275C21.4915 17.6734 18.3665 21.0741 14.3114 21.8292ZM21.8275 11.9858H17.3251C17.124 8.96992 16.0755 6.0791 14.3114 3.64246C18.3665 4.39758 21.4915 7.79829 21.8275 11.9858ZM1.85742 12.7358C1.85742 6.79878 6.67036 1.98584 12.6074 1.98584C18.5445 1.98584 23.3574 6.79878 23.3574 12.7358C23.3574 18.6729 18.5445 23.4858 12.6074 23.4858C6.67036 23.4858 1.85742 18.6729 1.85742 12.7358Z" clip-rule="evenodd" fill-rule="evenodd"></path>
</svg>
