<svg xmlns="http://www.w3.org/2000/svg" fill="none" viewBox="0 0 16 16" height="16" width="16">
<path fill="#5C6062" d="M8 1.83334C4.59424 1.83334 1.83333 4.59425 1.83333 8.00001C1.83333 11.4058 4.59424 14.1667 8 14.1667C11.4058 14.1667 14.1667 11.4058 14.1667 8.00001C14.1667 4.59425 11.4058 1.83334 8 1.83334ZM0.833334 8.00001C0.833334 4.04197 4.04196 0.833344 8 0.833344C11.958 0.833344 15.1667 4.04197 15.1667 8.00001C15.1667 11.9581 11.958 15.1667 8 15.1667C4.04196 15.1667 0.833334 11.9581 0.833334 8.00001ZM5.5 6.00001C5.5 5.72387 5.72386 5.50001 6 5.50001H6.00667C6.28281 5.50001 6.50667 5.72387 6.50667 6.00001C6.50667 6.27615 6.28281 6.50001 6.00667 6.50001H6C5.72386 6.50001 5.5 6.27615 5.5 6.00001ZM9.5 6.00001C9.5 5.72387 9.72386 5.50001 10 5.50001H10.0067C10.2828 5.50001 10.5067 5.72387 10.5067 6.00001C10.5067 6.27615 10.2828 6.50001 10.0067 6.50001H10C9.72386 6.50001 9.5 6.27615 9.5 6.00001ZM4.99657 9.71207C5.03354 9.75612 5.08643 9.81647 5.15463 9.88763C5.29062 10.0295 5.48984 10.2169 5.74758 10.4044C6.26113 10.7779 7.0289 11.1667 8 11.1667C8.9711 11.1667 9.73887 10.7779 10.2524 10.4044C10.5102 10.2169 10.7094 10.0295 10.8454 9.88763C10.9296 9.79973 11.0196 9.70798 11.0863 9.6053C11.2283 9.3866 11.1784 9.09213 10.9667 8.93334C10.7459 8.76773 10.4326 8.81239 10.2669 9.03305L10.2674 9.03233L10.263 9.03797C10.2581 9.04417 10.2496 9.05479 10.2375 9.0692C10.2132 9.09806 10.175 9.14189 10.1234 9.19572C10.0198 9.30383 9.86484 9.44976 9.66425 9.59564C9.26114 9.88882 8.69557 10.1667 8 10.1667C7.30443 10.1667 6.73887 9.88882 6.33575 9.59564C6.13516 9.44976 5.98022 9.30383 5.87662 9.19572C5.82503 9.14189 5.78677 9.09806 5.76255 9.0692C5.75045 9.05479 5.7419 9.04417 5.73699 9.03797L5.73257 9.03233C5.56673 8.8121 5.25398 8.76786 5.03333 8.93334C4.81862 9.09438 4.77053 9.39526 4.92012 9.61485C4.93998 9.644 4.9582 9.66635 4.99657 9.71207Z" clip-rule="evenodd" fill-rule="evenodd"></path>
</svg>
