<svg xmlns="http://www.w3.org/2000/svg" fill="none" viewBox="0 0 19 22" height="22" width="19">
<path fill="#1B252B" d="M6.10714 5.5V8.25H12.8929V5.5C12.8929 3.60078 11.3746 2.0625 9.5 2.0625C7.62545 2.0625 6.10714 3.60078 6.10714 5.5ZM4.07143 8.25V5.5C4.07143 2.46211 6.50156 0 9.5 0C12.4984 0 14.9286 2.46211 14.9286 5.5V8.25H16.2857C17.7828 8.25 19 9.4832 19 11V19.25C19 20.7668 17.7828 22 16.2857 22H2.71429C1.21719 22 0 20.7668 0 19.25V11C0 9.4832 1.21719 8.25 2.71429 8.25H4.07143ZM2.03571 11V19.25C2.03571 19.6281 2.34107 19.9375 2.71429 19.9375H16.2857C16.6589 19.9375 16.9643 19.6281 16.9643 19.25V11C16.9643 10.6219 16.6589 10.3125 16.2857 10.3125H2.71429C2.34107 10.3125 2.03571 10.6219 2.03571 11Z"></path>
</svg>
