<svg xmlns="http://www.w3.org/2000/svg" fill="none" viewBox="0 0 25 25" height="25" width="25">
<path fill="black" d="M12.6074 4.48584C10.8125 4.48584 9.35742 5.94091 9.35742 7.73584C9.35742 9.53077 10.8125 10.9858 12.6074 10.9858C14.4023 10.9858 15.8574 9.53077 15.8574 7.73584C15.8574 5.94091 14.4023 4.48584 12.6074 4.48584ZM7.85742 7.73584C7.85742 5.11249 9.98407 2.98584 12.6074 2.98584C15.2308 2.98584 17.3574 5.11249 17.3574 7.73584C17.3574 10.3592 15.2308 12.4858 12.6074 12.4858C9.98407 12.4858 7.85742 10.3592 7.85742 7.73584ZM5.24866 16.3771C6.13946 15.4863 7.34764 14.9858 8.60742 14.9858H16.6074C17.8672 14.9858 19.0754 15.4863 19.9662 16.3771C20.857 17.2679 21.3574 18.4761 21.3574 19.7358V21.7358C21.3574 22.1501 21.0216 22.4858 20.6074 22.4858C20.1932 22.4858 19.8574 22.1501 19.8574 21.7358V19.7358C19.8574 18.8739 19.515 18.0472 18.9055 17.4377C18.296 16.8282 17.4694 16.4858 16.6074 16.4858H8.60742C7.74547 16.4858 6.91882 16.8282 6.30932 17.4377C5.69983 18.0472 5.35742 18.8739 5.35742 19.7358V21.7358C5.35742 22.1501 5.02164 22.4858 4.60742 22.4858C4.19321 22.4858 3.85742 22.1501 3.85742 21.7358V19.7358C3.85742 18.4761 4.35787 17.2679 5.24866 16.3771Z" clip-rule="evenodd" fill-rule="evenodd"></path>
</svg>
