<svg xmlns="http://www.w3.org/2000/svg" fill="none" viewBox="0 0 393 44" height="44" width="393">
<g clip-path="url(#clip0_1_11)">
<path fill="white" d="M80.2234 30.5089L61.0665 0.724304H50.7095V43.2351H59.5095V13.4505L78.6665 43.2351H89.0234V0.724304H80.2234V30.5089Z"></path>
<path fill="white" d="M96.3138 8.91507H110.597V43.2351H119.735V8.91507H134.018V0.724304H96.3138V8.91507Z"></path>
<path fill="white" d="M170.478 17.7151H150.441V0.791996H141.302V43.3028H150.441V25.9058H170.478V43.3028H179.616V0.724304H170.478V17.7151Z"></path>
<path fill="white" d="M199.93 8.91507H211.167C215.635 8.91507 218.004 10.5397 218.004 13.6535C218.004 16.7674 215.635 18.392 211.167 18.392H199.93V8.91507ZM227.143 13.7212C227.143 5.66584 221.254 0.791992 211.574 0.791992H190.792V43.3028H199.93V26.6505H210.084L219.223 43.3028H229.309L219.223 25.3643C224.3 23.4012 227.143 19.3397 227.143 13.7212Z"></path>
<path fill="white" d="M255.066 35.4708C247.89 35.4708 243.49 30.3938 243.49 22.0677C243.49 13.6062 247.89 8.52923 255.066 8.52923C262.173 8.52923 266.506 13.6062 266.506 22.0677C266.506 30.3938 262.173 35.4708 255.066 35.4708ZM255.066 0C242.813 0 234.081 9.13846 234.081 22.0677C234.081 34.8615 242.746 44 255.066 44C267.25 44 275.915 34.8615 275.915 22.0677C275.915 9.13846 267.318 0 255.066 0Z"></path>
<path fill="white" d="M304.82 19.6105H293.583V8.91507H304.82C309.287 8.91507 311.657 10.7428 311.657 14.2628C311.657 17.7828 309.355 19.6105 304.82 19.6105ZM305.226 0.724304H284.444V43.2351H293.583V27.8689H305.226C314.906 27.8689 320.795 22.792 320.795 14.3305C320.795 5.86892 314.906 0.724304 305.226 0.724304Z"></path>
<path fill="white" d="M382.564 28.9723C381.007 33.1015 377.826 35.4708 373.494 35.4708C366.318 35.4708 361.918 30.3938 361.918 22.0677C361.918 13.6062 366.318 8.52923 373.494 8.52923C377.826 8.52923 380.94 10.8985 382.564 15.0277H392.244C389.807 5.88923 382.7 0 373.494 0C361.241 0 352.509 9.13846 352.509 22.0677C352.509 34.8615 361.174 44 373.494 44C382.767 44 389.875 38.0431 392.244 28.9723H382.564Z"></path>
<path fill="white" d="M324.478 0.724304L341.468 43.2351H350.742L333.751 0.724304H324.478Z"></path>
<path fill="white" d="M16.4572 26.4474L22.2787 11.4874L28.1003 26.4474H16.4572ZM17.4049 0.724304L0.414124 43.3028H9.89105L13.3434 34.3674H31.0787L34.531 43.3028H44.008L27.0849 0.724304H17.4049Z"></path>
</g>
<defs>
<clipPath id="clip0_1_11">
<rect transform="translate(0.414124)" fill="white" height="44" width="391.871"></rect>
</clipPath>
</defs>
</svg>
