<svg xmlns="http://www.w3.org/2000/svg" fill="none" viewBox="0 0 135 40" height="40" width="135">
<rect fill="white" rx="3.5" height="39" width="134" y="0.5" x="0.5"></rect>
<rect stroke="black" rx="3.5" height="39" width="134" y="0.5" x="0.5"></rect>
<path stroke-miterlimit="10" stroke-width="0.2" stroke="black" fill="black" d="M47.4196 10.24C47.4196 11.08 47.1696 11.75 46.6696 12.24C46.1096 12.83 45.3696 13.13 44.4696 13.13C43.5696 13.13 42.8696 12.83 42.2596 12.23C41.6496 11.63 41.3496 10.88 41.3496 10C41.3496 9.12 41.6496 8.37 42.2596 7.77C42.8696 7.17 43.5996 6.87 44.4696 6.87C44.8996 6.87 45.3096 6.95 45.6996 7.12C46.0896 7.29 46.3996 7.51 46.6396 7.79L46.1096 8.31999C45.7096 7.84999 45.1696 7.61 44.4696 7.61C43.8396 7.61 43.2896 7.82999 42.8296 8.27999C42.3696 8.71999 42.1396 9.3 42.1396 10.01C42.1396 10.72 42.3696 11.3 42.8296 11.74C43.2896 12.18 43.8396 12.41 44.4696 12.41C45.1396 12.41 45.6996 12.19 46.1496 11.74C46.4396 11.45 46.6096 11.04 46.6496 10.52H44.4696V9.8H47.3796C47.4096 9.96 47.4196 10.11 47.4196 10.25V10.24Z"></path>
<path stroke-miterlimit="10" stroke-width="0.2" stroke="black" fill="black" d="M52.0293 7.74H49.2993V9.64H51.7593V10.36H49.2993V12.26H52.0293V13H48.5293V7H52.0293V7.74Z"></path>
<path stroke-miterlimit="10" stroke-width="0.2" stroke="black" fill="black" d="M55.2801 13H54.5101V7.74H52.8301V7H56.9501V7.74H55.2701V13H55.2801Z"></path>
<path stroke-miterlimit="10" stroke-width="0.2" stroke="black" fill="black" d="M59.9414 13V7H60.7114V13H59.9414Z"></path>
<path stroke-miterlimit="10" stroke-width="0.2" stroke="black" fill="black" d="M64.1297 13H63.3597V7.74H61.6797V7H65.7997V7.74H64.1197V13H64.1297Z"></path>
<path stroke-miterlimit="10" stroke-width="0.2" stroke="black" fill="black" d="M73.6101 12.22C73.0201 12.83 72.2901 13.13 71.4101 13.13C70.5301 13.13 69.8001 12.83 69.2101 12.22C68.6201 11.61 68.3301 10.87 68.3301 10C68.3301 9.13 68.6201 8.38 69.2101 7.78C69.8001 7.17 70.5301 6.87 71.4101 6.87C72.2901 6.87 73.0101 7.17 73.6101 7.78C74.2001 8.39 74.5001 9.13 74.5001 10C74.5001 10.87 74.2001 11.62 73.6201 12.22H73.6101ZM69.7801 11.72C70.2201 12.17 70.7701 12.39 71.4101 12.39C72.0501 12.39 72.6001 12.17 73.0401 11.72C73.4801 11.27 73.7101 10.7 73.7101 10C73.7101 9.3 73.4901 8.72999 73.0401 8.27999C72.6001 7.82999 72.0501 7.61 71.4101 7.61C70.7701 7.61 70.2201 7.82999 69.7801 8.27999C69.3401 8.72999 69.1101 9.3 69.1101 10C69.1101 10.7 69.3301 11.27 69.7801 11.72Z"></path>
<path stroke-miterlimit="10" stroke-width="0.2" stroke="black" fill="black" d="M75.5801 13V7H76.5201L79.4401 11.67H79.4701L79.4401 10.51V7H80.2101V13H79.4101L76.3601 8.11H76.3301L76.3601 9.27V13.01H75.5901L75.5801 13Z"></path>
<path fill="black" d="M68.141 21.75C65.791 21.75 63.871 23.54 63.871 26C63.871 28.46 65.791 30.25 68.141 30.25C70.491 30.25 72.411 28.45 72.411 26C72.411 23.55 70.491 21.75 68.141 21.75ZM68.141 28.58C66.851 28.58 65.741 27.52 65.741 26C65.741 24.48 66.851 23.42 68.141 23.42C69.431 23.42 70.541 24.47 70.541 26C70.541 27.53 69.431 28.58 68.141 28.58ZM58.821 21.75C56.471 21.75 54.551 23.54 54.551 26C54.551 28.46 56.471 30.25 58.821 30.25C61.171 30.25 63.091 28.45 63.091 26C63.091 23.55 61.171 21.75 58.821 21.75ZM58.821 28.58C57.531 28.58 56.421 27.52 56.421 26C56.421 24.48 57.531 23.42 58.821 23.42C60.111 23.42 61.221 24.47 61.221 26C61.221 27.53 60.111 28.58 58.821 28.58ZM47.741 23.06V24.8601H52.061C51.931 25.8801 51.591 26.62 51.081 27.13C50.451 27.76 49.471 28.4501 47.751 28.4501C45.091 28.4501 43.011 26.31 43.011 23.65C43.011 20.99 45.091 18.85 47.751 18.85C49.181 18.85 50.231 19.41 51.001 20.14L52.271 18.8701C51.191 17.8401 49.761 17.05 47.741 17.05C44.101 17.05 41.041 20.01 41.041 23.66C41.041 27.31 44.101 30.2701 47.741 30.2701C49.711 30.2701 51.191 29.63 52.351 28.42C53.541 27.23 53.911 25.5501 53.911 24.2001C53.911 23.7801 53.881 23.39 53.811 23.07H47.741V23.06ZM93.051 24.46C92.701 23.51 91.621 21.75 89.411 21.75C87.201 21.75 85.401 23.47 85.401 26C85.401 28.38 87.201 30.25 89.621 30.25C91.571 30.25 92.701 29.0601 93.161 28.3701L91.711 27.4C91.231 28.11 90.571 28.58 89.621 28.58C88.671 28.58 87.991 28.1401 87.561 27.2901L93.251 24.9401L93.061 24.46H93.051ZM87.251 25.88C87.201 24.24 88.521 23.4 89.471 23.4C90.211 23.4 90.841 23.77 91.051 24.3L87.251 25.88ZM82.631 30H84.501V17.5H82.631V30ZM79.571 22.7001H79.511C79.091 22.2001 78.291 21.75 77.271 21.75C75.141 21.75 73.191 23.62 73.191 26.0201C73.191 28.4201 75.141 30.26 77.271 30.26C78.291 30.26 79.091 29.8101 79.511 29.2901H79.571V29.9C79.571 31.53 78.701 32.4001 77.301 32.4001C76.161 32.4001 75.451 31.58 75.161 30.89L73.531 31.57C74.001 32.7 75.241 34.0801 77.301 34.0801C79.491 34.0801 81.341 32.79 81.341 29.65V22.01H79.571V22.7001ZM77.421 28.58C76.131 28.58 75.051 27.5001 75.051 26.0201C75.051 24.5401 76.131 23.43 77.421 23.43C78.711 23.43 79.691 24.5301 79.691 26.0201C79.691 27.5101 78.691 28.58 77.421 28.58ZM101.811 17.5H97.341V30H99.211V25.26H101.821C103.891 25.26 105.921 23.76 105.921 21.38C105.921 19 103.891 17.5 101.821 17.5H101.811ZM101.851 23.5201H99.201V19.23H101.851C103.251 19.23 104.041 20.3901 104.041 21.3701C104.041 22.3501 103.251 23.51 101.851 23.51V23.5201ZM113.391 21.73C112.041 21.73 110.641 22.33 110.061 23.64L111.721 24.33C112.071 23.64 112.731 23.41 113.421 23.41C114.381 23.41 115.371 23.9901 115.381 25.0201V25.15C115.041 24.96 114.321 24.67 113.431 24.67C111.641 24.67 109.831 25.65 109.831 27.48C109.831 29.15 111.291 30.23 112.931 30.23C114.181 30.23 114.881 29.67 115.311 29.01H115.371V29.98H117.171V25.1901C117.171 22.9701 115.511 21.73 113.371 21.73H113.391ZM113.161 28.58C112.551 28.58 111.701 28.2701 111.701 27.5201C111.701 26.5601 112.761 26.1901 113.681 26.1901C114.501 26.1901 114.891 26.3701 115.381 26.6101C115.241 27.7701 114.241 28.59 113.161 28.59V28.58ZM123.741 22L121.601 27.42H121.541L119.321 22H117.311L120.641 29.58L118.741 33.7901H120.691L125.821 22H123.751H123.741ZM106.941 30H108.811V17.5H106.941V30Z"></path>
<path stroke-miterlimit="10" stroke="white" fill="black" d="M20.7203 19.42L10.0703 30.72C10.4003 31.95 11.5203 32.85 12.8503 32.85C13.3803 32.85 13.8803 32.71 14.3103 32.45L14.3403 32.43L26.3203 25.52L20.7103 19.41L20.7203 19.42Z"></path>
<path stroke-miterlimit="10" stroke="white" fill="black" d="M31.4905 17.5H31.4805L26.3105 14.49L20.4805 19.68L26.3305 25.53L31.4805 22.56C32.3805 22.07 32.9905 21.12 32.9905 20.03C32.9905 18.94 32.3905 17.99 31.4905 17.51V17.5Z"></path>
<path stroke-miterlimit="10" stroke="white" fill="black" d="M10.0687 9.28006C10.0087 9.52006 9.96875 9.76006 9.96875 10.0201V29.9901C9.96875 30.2501 9.99875 30.4901 10.0687 30.7301L21.0787 19.7201L10.0687 9.28006Z"></path>
<path stroke-miterlimit="10" stroke="white" fill="black" d="M20.8003 20L26.3103 14.49L14.3403 7.55005C13.9103 7.29005 13.4003 7.14005 12.8503 7.14005C11.5203 7.14005 10.4003 8.05005 10.0703 9.27005L20.8003 19.99V20Z"></path>
</svg>
