<svg xmlns="http://www.w3.org/2000/svg" fill="none" viewBox="0 0 22 22" height="22" width="22">
<path fill="#1B252B" d="M8.25 2.0625C9.19961 2.0625 9.96875 2.83164 9.96875 3.78125V5.5H9.13945C8.87305 4.89414 8.26719 4.46875 7.5625 4.46875C6.61289 4.46875 5.84375 5.23789 5.84375 6.1875C5.84375 7.13711 6.61289 7.90625 7.5625 7.90625C8.26719 7.90625 8.87305 7.48086 9.13945 6.875H9.96875V11H8.25C7.11133 11 6.1875 11.9238 6.1875 13.0625V13.548C5.58164 13.8145 5.15625 14.4203 5.15625 15.125C5.15625 16.0746 5.92539 16.8438 6.875 16.8438C7.82461 16.8438 8.59375 16.0746 8.59375 15.125C8.59375 14.4203 8.16836 13.8145 7.5625 13.548V13.0625C7.5625 12.6844 7.87187 12.375 8.25 12.375H9.96875V18.0469C9.96875 19.091 9.12227 19.9375 8.07812 19.9375C7.31328 19.9375 6.65156 19.482 6.35508 18.8246C6.1918 18.4637 5.83945 18.2273 5.44414 18.2188C4.33125 18.1887 3.4375 17.2777 3.4375 16.1562C3.4375 16.0445 3.44609 15.9328 3.46328 15.8297C3.52344 15.4645 3.37734 15.0949 3.08945 14.8629C2.46211 14.3559 2.0625 13.5867 2.0625 12.7188C2.0625 11.8895 2.42773 11.1461 3.01211 10.6434C3.35586 10.3469 3.46328 9.85703 3.27422 9.44023C3.1582 9.18242 3.09375 8.89883 3.09375 8.59375C3.09375 7.78594 3.55781 7.08555 4.24102 6.74609C4.58906 6.57422 4.8125 6.21758 4.8125 5.83086C4.8168 5.00156 5.31523 4.28398 6.02852 3.96172C6.30352 3.83711 6.51406 3.59648 6.5957 3.3043C6.80195 2.58672 7.46797 2.0625 8.25 2.0625ZM8.07812 22C9.23398 22 10.2781 21.5016 11 20.7109C11.7219 21.5059 12.766 22 13.9219 22C15.3055 22 16.5215 21.291 17.2262 20.2168C19.1598 19.873 20.625 18.1844 20.625 16.1562C20.625 16.1348 20.625 16.109 20.625 16.0875C21.4758 15.2195 22 14.0293 22 12.7188C22 11.5242 21.566 10.4328 20.8484 9.59492C20.9258 9.27266 20.9688 8.9375 20.9688 8.59375C20.9688 7.19297 20.2684 5.95117 19.2027 5.20781C19.0094 3.96602 18.266 2.90898 17.2305 2.29453C16.6504 0.945313 15.3098 0 13.75 0C12.6672 0 11.6875 0.455469 11 1.18594C10.3125 0.455469 9.33281 0 8.25 0C6.69023 0 5.34961 0.945313 4.77383 2.29453C3.73398 2.90898 2.99062 3.96602 2.79727 5.20781C1.73164 5.95117 1.03125 7.19297 1.03125 8.59375C1.03125 8.9375 1.07422 9.27266 1.15156 9.59492C0.433984 10.4328 0 11.5242 0 12.7188C0 14.0293 0.524219 15.2195 1.375 16.0875C1.375 16.109 1.375 16.1348 1.375 16.1562C1.375 18.1887 2.84023 19.873 4.77383 20.2168C5.47852 21.291 6.69453 22 8.07812 22ZM13.9219 19.9375C12.8777 19.9375 12.0312 19.091 12.0312 18.0469V15.125H14.2355C14.502 15.7309 15.1078 16.1562 15.8125 16.1562C16.7621 16.1562 17.5312 15.3871 17.5312 14.4375C17.5312 13.4879 16.7621 12.7188 15.8125 12.7188C15.1078 12.7188 14.502 13.1441 14.2355 13.75H12.0312V6.875H13.75C14.1281 6.875 14.4375 7.18437 14.4375 7.5625V8.04805C13.8316 8.31445 13.4062 8.92031 13.4062 9.625C13.4062 10.5746 14.1754 11.3438 15.125 11.3438C16.0746 11.3438 16.8438 10.5746 16.8438 9.625C16.8438 8.92031 16.4184 8.31445 15.8125 8.04805V7.5625C15.8125 6.42383 14.8887 5.5 13.75 5.5H12.0312V3.78125C12.0312 2.83164 12.8004 2.0625 13.75 2.0625C14.532 2.0625 15.198 2.58672 15.4043 3.3043C15.4859 3.59648 15.6965 3.83711 15.9715 3.96172C16.6848 4.28398 17.1832 4.99727 17.1875 5.83086C17.1918 6.22187 17.4109 6.57422 17.759 6.74609C18.4422 7.08555 18.9062 7.78594 18.9062 8.59375C18.9062 8.89883 18.8418 9.18242 18.7258 9.44023C18.5367 9.85703 18.6441 10.3426 18.9879 10.6434C19.568 11.1504 19.9375 11.8895 19.9375 12.7188C19.9375 13.5867 19.5379 14.3559 18.9105 14.8629C18.6227 15.0949 18.4809 15.4645 18.5367 15.8297C18.5539 15.9371 18.5625 16.0445 18.5625 16.1562C18.5625 17.2777 17.6687 18.1887 16.5559 18.2188C16.1605 18.2316 15.8082 18.4637 15.6449 18.8246C15.3484 19.482 14.6867 19.9375 13.9219 19.9375ZM7.5625 5.5C7.74484 5.5 7.9197 5.57243 8.04864 5.70136C8.17757 5.8303 8.25 6.00516 8.25 6.1875C8.25 6.36984 8.17757 6.5447 8.04864 6.67364C7.9197 6.80257 7.74484 6.875 7.5625 6.875C7.38016 6.875 7.2053 6.80257 7.07636 6.67364C6.94743 6.5447 6.875 6.36984 6.875 6.1875C6.875 6.00516 6.94743 5.8303 7.07636 5.70136C7.2053 5.57243 7.38016 5.5 7.5625 5.5ZM6.875 14.4375C7.05734 14.4375 7.2322 14.5099 7.36114 14.6389C7.49007 14.7678 7.5625 14.9427 7.5625 15.125C7.5625 15.3073 7.49007 15.4822 7.36114 15.6111C7.2322 15.7401 7.05734 15.8125 6.875 15.8125C6.69266 15.8125 6.5178 15.7401 6.38886 15.6111C6.25993 15.4822 6.1875 15.3073 6.1875 15.125C6.1875 14.9427 6.25993 14.7678 6.38886 14.6389C6.5178 14.5099 6.69266 14.4375 6.875 14.4375ZM14.4375 9.625C14.4375 9.44266 14.5099 9.2678 14.6389 9.13886C14.7678 9.00993 14.9427 8.9375 15.125 8.9375C15.3073 8.9375 15.4822 9.00993 15.6111 9.13886C15.7401 9.2678 15.8125 9.44266 15.8125 9.625C15.8125 9.80734 15.7401 9.9822 15.6111 10.1111C15.4822 10.2401 15.3073 10.3125 15.125 10.3125C14.9427 10.3125 14.7678 10.2401 14.6389 10.1111C14.5099 9.9822 14.4375 9.80734 14.4375 9.625ZM15.8125 13.75C15.9948 13.75 16.1697 13.8224 16.2986 13.9514C16.4276 14.0803 16.5 14.2552 16.5 14.4375C16.5 14.6198 16.4276 14.7947 16.2986 14.9236C16.1697 15.0526 15.9948 15.125 15.8125 15.125C15.6302 15.125 15.4553 15.0526 15.3264 14.9236C15.1974 14.7947 15.125 14.6198 15.125 14.4375C15.125 14.2552 15.1974 14.0803 15.3264 13.9514C15.4553 13.8224 15.6302 13.75 15.8125 13.75Z"></path>
</svg>
