<svg xmlns="http://www.w3.org/2000/svg" fill="none" viewBox="0 0 19 22" height="22" width="19">
<path fill="#1B252B" d="M16.9643 3.69531V7.50664C16.4002 7.81602 15.6241 8.1168 14.6402 8.36172C13.2025 8.72266 11.4297 8.9375 9.5 8.9375C7.57031 8.9375 5.79754 8.72266 4.35982 8.36172C3.37589 8.1168 2.59978 7.82031 2.03571 7.50664V3.69531L2.06116 3.67383C2.28594 3.48047 2.73549 3.21406 3.4692 2.94766C4.9154 2.42773 7.04866 2.0625 9.5 2.0625C11.9513 2.0625 14.0846 2.42773 15.5308 2.94766C16.2645 3.21406 16.7098 3.48047 16.9388 3.67383L16.9643 3.69531ZM16.9643 9.77539V13.0066C16.4002 13.316 15.6241 13.6168 14.6402 13.8617C13.2025 14.2227 11.4297 14.4375 9.5 14.4375C7.57031 14.4375 5.79754 14.2227 4.35982 13.8617C3.37589 13.6168 2.59978 13.3203 2.03571 13.0066V9.77539C2.59978 10.0031 3.21897 10.2008 3.8721 10.3641C5.49219 10.768 7.43036 11 9.5 11C11.5696 11 13.5078 10.768 15.1279 10.3641C15.781 10.2008 16.4002 10.0074 16.9643 9.77539ZM2.03571 18.3047V15.2797C2.59978 15.5074 3.21897 15.7051 3.8721 15.8684C5.49219 16.268 7.43036 16.5 9.5 16.5C11.5696 16.5 13.5078 16.268 15.1279 15.8641C15.781 15.7008 16.4002 15.5074 16.9643 15.2754V18.3004L16.9388 18.3219C16.7141 18.5152 16.2645 18.7816 15.5308 19.048C14.0846 19.5723 11.9513 19.9375 9.5 19.9375C7.04866 19.9375 4.9154 19.5723 3.4692 19.0523C2.73549 18.7859 2.29018 18.5195 2.06116 18.3262L2.03571 18.3047ZM17.0533 18.2145C17.0533 18.2145 17.0533 18.2188 17.0449 18.223L17.0491 18.2145C17.0491 18.2145 17.0491 18.2145 17.0491 18.2102L17.0533 18.2145ZM1.95089 18.2145C1.95089 18.2145 1.95089 18.2188 1.95937 18.223C1.95513 18.2188 1.95513 18.2145 1.95089 18.2145ZM17.0491 3.77695C17.0533 3.78125 17.0576 3.78555 17.0576 3.78555C17.0576 3.78555 17.0576 3.78125 17.0491 3.77695ZM19 18.5625V3.4375C19 1.53828 14.7462 0 9.5 0C4.25379 0 0 1.53828 0 3.4375V18.5625C0 20.4617 4.25379 22 9.5 22C14.7462 22 19 20.4617 19 18.5625Z"></path>
</svg>
