<svg xmlns="http://www.w3.org/2000/svg" fill="none" viewBox="0 0 24 21" height="21" width="24">
<path fill="#1B252B" d="M16.875 2.25V6.375H21.75V3C21.75 2.5875 21.4125 2.25 21 2.25H16.875ZM14.625 2.25H9.375V6.375H14.625V2.25ZM7.125 2.25H3C2.5875 2.25 2.25 2.5875 2.25 3V6.375H7.125V2.25ZM2.25 8.625V12.375H7.125V8.625H2.25ZM2.25 14.625V18C2.25 18.4125 2.5875 18.75 3 18.75H7.125V14.625H2.25ZM9.375 18.75H14.625V14.625H9.375V18.75ZM16.875 18.75H21C21.4125 18.75 21.75 18.4125 21.75 18V14.625H16.875V18.75ZM21.75 12.375V8.625H16.875V12.375H21.75ZM0 3C0 1.34531 1.34531 0 3 0H21C22.6547 0 24 1.34531 24 3V18C24 19.6547 22.6547 21 21 21H3C1.34531 21 0 19.6547 0 18V3ZM9.375 12.375H14.625V8.625H9.375V12.375Z"></path>
</svg>
