<svg xmlns="http://www.w3.org/2000/svg" fill="none" viewBox="0 0 14 18" height="18" width="14">
<path fill="#1B252B" d="M8.47884 6.88316C6.85284 6.27916 5.96684 5.81616 5.96684 5.08016C5.96684 4.45816 6.47784 4.10316 7.38984 4.10316C9.05684 4.10316 10.7688 4.74516 11.9478 5.32316L12.6138 1.21216C11.6788 0.766156 9.76684 0.0351562 7.12384 0.0351562C5.25384 0.0351562 3.69884 0.524156 2.58784 1.43616C1.43284 2.39016 0.830843 3.77016 0.830843 5.43616C0.830843 8.45916 2.67784 9.74816 5.67784 10.8392C7.61384 11.5272 8.25684 12.0172 8.25684 12.7732C8.25684 13.5052 7.62784 13.9282 6.49484 13.9282C5.09184 13.9282 2.77884 13.2392 1.26384 12.3502L0.589844 16.5072C1.89384 17.2392 4.29484 17.9952 6.78684 17.9952C8.76284 17.9952 10.4108 17.5282 11.5218 16.6392C12.7668 15.6622 13.4118 14.2172 13.4118 12.3502C13.4118 9.25916 11.5228 7.97016 8.47684 6.88216H8.47884V6.88316Z"></path>
</svg>
