<svg xmlns="http://www.w3.org/2000/svg" fill="none" viewBox="0 0 25 25" height="25" width="25">
<path fill="black" d="M9.60742 2.98584C9.93024 2.98584 10.2168 3.19241 10.3189 3.49867L15.6074 19.3641L17.8959 12.4987C17.998 12.1924 18.2846 11.9858 18.6074 11.9858H22.6074C23.0216 11.9858 23.3574 12.3216 23.3574 12.7358C23.3574 13.1501 23.0216 13.4858 22.6074 13.4858H19.148L16.3189 21.973C16.2168 22.2793 15.9302 22.4858 15.6074 22.4858C15.2846 22.4858 14.998 22.2793 14.8959 21.973L9.60742 6.10755L7.31893 12.973C7.21685 13.2793 6.93024 13.4858 6.60742 13.4858H2.60742C2.19321 13.4858 1.85742 13.1501 1.85742 12.7358C1.85742 12.3216 2.19321 11.9858 2.60742 11.9858H6.06685L8.89591 3.49867C8.99799 3.19241 9.2846 2.98584 9.60742 2.98584Z" clip-rule="evenodd" fill-rule="evenodd"></path>
</svg>
