<svg xmlns="http://www.w3.org/2000/svg" fill="none" viewBox="0 0 15 22" height="22" width="15">
<path fill="#1B252B" d="M2.72727 2.0625C2.35227 2.0625 2.04545 2.37187 2.04545 2.75V19.25C2.04545 19.6281 2.35227 19.9375 2.72727 19.9375H12.2727C12.6477 19.9375 12.9545 19.6281 12.9545 19.25V2.75C12.9545 2.37187 12.6477 2.0625 12.2727 2.0625H2.72727ZM0 2.75C0 1.2332 1.22301 0 2.72727 0H12.2727C13.777 0 15 1.2332 15 2.75V19.25C15 20.7668 13.777 22 12.2727 22H2.72727C1.22301 22 0 20.7668 0 19.25V2.75ZM6.13636 17.1875H8.86364C9.23864 17.1875 9.54545 17.4969 9.54545 17.875C9.54545 18.2531 9.23864 18.5625 8.86364 18.5625H6.13636C5.76136 18.5625 5.45455 18.2531 5.45455 17.875C5.45455 17.4969 5.76136 17.1875 6.13636 17.1875Z"></path>
</svg>
